# xmcd
#
# Track frame offsets:
#	150
#	18891
#	37984
#	60310
#	77686
#	97937
#	119784
#	139888
#	165456
#	181167
#	205048
#	221084
#	240130
#	261132
#	280632
#	301764
#
# Disc length: 4247 seconds
# Revision: 0
# Processed by: cddbd v1.5.2PL0 Copyright (c) Steve Scherf et al.
# Submitted via: dBpowerAMP V12.0
#
DISCID=c6109510
DTITLE=Various Artist - SuperBad
DYEAR=2009
DGENRE=Hip Hop
TTITLE0=Lil Boosie featuring Lil' Phat and Lil' Trill - My Avenue
TTITLE1=Lil Boosie featuring Mouse and Lil' Phat - Top Notch
TTITLE2=Lil Boosie featuring Young Jeezy and Webbie - Better Believe It
TTITLE3=Lil Boosie - Lawd Have Mercy
TTITLE4=Lil Boosie featuring Lil' Phat - I'm A Dog
TTITLE5=Lil Boosie - No Mercy
TTITLE6=Lil Boosie featuring Lil' Phat and Webbie - Levi's
TTITLE7=Lil Boosie - Bullshit
TTITLE8=Lil Boosie featuring Bobby V - Who Can Love U
TTITLE9=Lil Boosie featuring Trina and Kade - Miss Kissin' On You
TTITLE10=Lil Boosie - Pain
TTITLE11=Lil Boosie featuring Foxx and Mouse - Loose As A Goose
TTITLE12=Lil Boosie - Clips And Choppers
TTITLE13=Lil Boosie - Bank Roll
TTITLE14=Lil Boosie - Crayola
TTITLE15=Lil Boosie - Mind Of A Maniac
EXTD=
EXTT0=
EXTT1=
EXTT2=
EXTT3=
EXTT4=
EXTT5=
EXTT6=
EXTT7=
EXTT8=
EXTT9=
EXTT10=
EXTT11=
EXTT12=
EXTT13=
EXTT14=
EXTT15=
PLAYORDER=
